<mxfile host="Electron" modified="2023-08-20T11:09:10.547Z" agent="Mozilla/5.0 (Windows NT 10.0; Win64; x64) AppleWebKit/537.36 (KHTML, like Gecko) draw.io/21.6.8 Chrome/114.0.5735.289 Electron/25.5.0 Safari/537.36" etag="o4MtVmmUehVbH9Zg8ShH" version="21.6.8" type="device">
  <diagram name="Seite-1" id="MdQONIANvpiDQmOcuUqw">
    <mxGraphModel dx="1338" dy="973" grid="1" gridSize="10" guides="1" tooltips="1" connect="1" arrows="1" fold="1" page="1" pageScale="1" pageWidth="1169" pageHeight="827" math="0" shadow="0">
      <root>
        <mxCell id="0" />
        <mxCell id="1" parent="0" />
        <mxCell id="3K_Rry1ETDF8pU7lPkbD-1" value="Body" style="swimlane;fontStyle=1;align=center;verticalAlign=top;childLayout=stackLayout;horizontal=1;startSize=26;horizontalStack=0;resizeParent=1;resizeParentMax=0;resizeLast=0;collapsible=1;marginBottom=0;whiteSpace=wrap;html=1;fontSize=20;" vertex="1" parent="1">
          <mxGeometry x="70" y="164" width="340" height="250" as="geometry" />
        </mxCell>
        <mxCell id="3K_Rry1ETDF8pU7lPkbD-2" value="+ mass: f64&lt;br style=&quot;font-size: 20px;&quot;&gt;+ density: f64&lt;br style=&quot;font-size: 20px;&quot;&gt;+ raidus: f64&lt;br style=&quot;font-size: 20px;&quot;&gt;+ pos: Vector3&amp;lt;f64&amp;gt;&lt;br style=&quot;font-size: 20px;&quot;&gt;+ vel: Vector3&amp;lt;f64&amp;gt;&lt;br style=&quot;font-size: 20px;&quot;&gt;+ acc: Vector3&amp;lt;f64&amp;gt;" style="text;strokeColor=none;fillColor=none;align=left;verticalAlign=top;spacingLeft=4;spacingRight=4;overflow=hidden;rotatable=0;points=[[0,0.5],[1,0.5]];portConstraint=eastwest;whiteSpace=wrap;html=1;fontSize=20;" vertex="1" parent="3K_Rry1ETDF8pU7lPkbD-1">
          <mxGeometry y="26" width="340" height="154" as="geometry" />
        </mxCell>
        <mxCell id="3K_Rry1ETDF8pU7lPkbD-3" value="" style="line;strokeWidth=1;fillColor=none;align=left;verticalAlign=middle;spacingTop=-1;spacingLeft=3;spacingRight=3;rotatable=0;labelPosition=right;points=[];portConstraint=eastwest;strokeColor=inherit;fontSize=20;" vertex="1" parent="3K_Rry1ETDF8pU7lPkbD-1">
          <mxGeometry y="180" width="340" height="8" as="geometry" />
        </mxCell>
        <mxCell id="3K_Rry1ETDF8pU7lPkbD-4" value="+ accelerate(f64): Res&amp;lt;()&amp;gt;&lt;br&gt;+ movement(f64)" style="text;strokeColor=none;fillColor=none;align=left;verticalAlign=top;spacingLeft=4;spacingRight=4;overflow=hidden;rotatable=0;points=[[0,0.5],[1,0.5]];portConstraint=eastwest;whiteSpace=wrap;html=1;fontSize=20;" vertex="1" parent="3K_Rry1ETDF8pU7lPkbD-1">
          <mxGeometry y="188" width="340" height="62" as="geometry" />
        </mxCell>
        <mxCell id="3K_Rry1ETDF8pU7lPkbD-6" value="SimState" style="swimlane;fontStyle=1;align=center;verticalAlign=top;childLayout=stackLayout;horizontal=1;startSize=26;horizontalStack=0;resizeParent=1;resizeParentMax=0;resizeLast=0;collapsible=1;marginBottom=0;whiteSpace=wrap;html=1;fontSize=20;" vertex="1" parent="1">
          <mxGeometry x="585" y="139" width="340" height="300" as="geometry" />
        </mxCell>
        <mxCell id="3K_Rry1ETDF8pU7lPkbD-7" value="+ bodies: Vec&amp;lt;Body&amp;gt;&lt;br&gt;+ metadata: SimMetaData&lt;br&gt;+ target_time_per_step_s: f64" style="text;strokeColor=none;fillColor=none;align=left;verticalAlign=top;spacingLeft=4;spacingRight=4;overflow=hidden;rotatable=0;points=[[0,0.5],[1,0.5]];portConstraint=eastwest;whiteSpace=wrap;html=1;fontSize=20;" vertex="1" parent="3K_Rry1ETDF8pU7lPkbD-6">
          <mxGeometry y="26" width="340" height="84" as="geometry" />
        </mxCell>
        <mxCell id="3K_Rry1ETDF8pU7lPkbD-8" value="" style="line;strokeWidth=1;fillColor=none;align=left;verticalAlign=middle;spacingTop=-1;spacingLeft=3;spacingRight=3;rotatable=0;labelPosition=right;points=[];portConstraint=eastwest;strokeColor=inherit;fontSize=20;" vertex="1" parent="3K_Rry1ETDF8pU7lPkbD-6">
          <mxGeometry y="110" width="340" height="8" as="geometry" />
        </mxCell>
        <mxCell id="3K_Rry1ETDF8pU7lPkbD-9" value="+ interact(usize, usize)&lt;br&gt;+ time_step(f64, Sender&amp;lt;usize&amp;gt;): &lt;span style=&quot;white-space: pre;&quot;&gt;&#x9;&lt;/span&gt;Vec&amp;lt;usize&amp;gt;&lt;br&gt;+ handle_input(InputEvent, &lt;span style=&quot;white-space: pre;&quot;&gt;&#x9;&lt;/span&gt;Option&amp;lt;Body&amp;gt;, Sender&amp;lt;usize&amp;gt;)&lt;br&gt;+ hande_meta_input(SimMetaData)" style="text;strokeColor=none;fillColor=none;align=left;verticalAlign=top;spacingLeft=4;spacingRight=4;overflow=hidden;rotatable=0;points=[[0,0.5],[1,0.5]];portConstraint=eastwest;whiteSpace=wrap;html=1;fontSize=20;" vertex="1" parent="3K_Rry1ETDF8pU7lPkbD-6">
          <mxGeometry y="118" width="340" height="182" as="geometry" />
        </mxCell>
      </root>
    </mxGraphModel>
  </diagram>
</mxfile>
